<?xml version="1.0" encoding="UTF-8" standalone="no"?>
<!-- Created with Inkscape (http://www.inkscape.org/) -->

<svg
   xmlns:dc="http://purl.org/dc/elements/1.1/"
   xmlns:cc="http://creativecommons.org/ns#"
   xmlns:rdf="http://www.w3.org/1999/02/22-rdf-syntax-ns#"
   xmlns:svg="http://www.w3.org/2000/svg"
   xmlns="http://www.w3.org/2000/svg"
   xmlns:xlink="http://www.w3.org/1999/xlink"
   xmlns:sodipodi="http://sodipodi.sourceforge.net/DTD/sodipodi-0.dtd"
   xmlns:inkscape="http://www.inkscape.org/namespaces/inkscape"
   width="48px"
   height="48px"
   id="svg1307"
   sodipodi:version="0.32"
   inkscape:version="0.91 r13725"
   sodipodi:docname="about.svg"
   inkscape:export-filename="E:\Projects\java\src\main\resources\images\about.png"
   inkscape:export-xdpi="90"
   inkscape:export-ydpi="90"
   inkscape:output_extension="org.inkscape.output.svg.inkscape"
   version="1.1">
  <defs
     id="defs1309">
    <linearGradient
       inkscape:collect="always"
       id="linearGradient4324">
      <stop
         style="stop-color:#003380;stop-opacity:1"
         offset="0"
         id="stop4326" />
      <stop
         style="stop-color:#008000;stop-opacity:1"
         offset="1"
         id="stop4328" />
    </linearGradient>
    <inkscape:perspective
       sodipodi:type="inkscape:persp3d"
       inkscape:vp_x="0 : 24 : 1"
       inkscape:vp_y="0 : 1000 : 0"
       inkscape:vp_z="48 : 24 : 1"
       inkscape:persp3d-origin="24 : 16 : 1"
       id="perspective52" />
    <linearGradient
       id="linearGradient2251">
      <stop
         id="stop2253"
         offset="0"
         style="stop-color:#f6e1cf;stop-opacity:1;" />
      <stop
         style="stop-color:#e19d56;stop-opacity:1;"
         offset="0.5"
         id="stop3682" />
      <stop
         id="stop2255"
         offset="1"
         style="stop-color:#f4dcb7;stop-opacity:1" />
    </linearGradient>
    <linearGradient
       id="linearGradient2219">
      <stop
         style="stop-color:#ffffff;stop-opacity:1;"
         offset="0"
         id="stop2221" />
      <stop
         style="stop-color:#ffffff;stop-opacity:0.29963899;"
         offset="1"
         id="stop2223" />
    </linearGradient>
    <linearGradient
       id="linearGradient2846">
      <stop
         id="stop2848"
         offset="0.0000000"
         style="stop-color:#8a8a8a;stop-opacity:1.0000000;" />
      <stop
         id="stop2850"
         offset="1.0000000"
         style="stop-color:#484848;stop-opacity:1.0000000;" />
    </linearGradient>
    <linearGradient
       id="linearGradient4440">
      <stop
         style="stop-color:#7d7d7d;stop-opacity:1;"
         offset="0"
         id="stop4442" />
      <stop
         id="stop4448"
         offset="0.50000000"
         style="stop-color:#b1b1b1;stop-opacity:1.0000000;" />
      <stop
         style="stop-color:#686868;stop-opacity:1.0000000;"
         offset="1.0000000"
         id="stop4444" />
    </linearGradient>
    <linearGradient
       id="linearGradient2366">
      <stop
         id="stop2368"
         offset="0"
         style="stop-color:#ffffff;stop-opacity:1;" />
      <stop
         style="stop-color:#ffffff;stop-opacity:0.21904762;"
         offset="0.50000000"
         id="stop2374" />
      <stop
         id="stop2370"
         offset="1.0000000"
         style="stop-color:#ffffff;stop-opacity:1.0000000;" />
    </linearGradient>
    <linearGradient
       id="linearGradient4454">
      <stop
         style="stop-color:#729fcf;stop-opacity:0.20784314;"
         offset="0.0000000"
         id="stop4456" />
      <stop
         style="stop-color:#729fcf;stop-opacity:0.67619050;"
         offset="1.0000000"
         id="stop4458" />
    </linearGradient>
    <linearGradient
       inkscape:collect="always"
       xlink:href="#linearGradient4324"
       id="linearGradient4330"
       x1="-86.5"
       y1="-27.5"
       x2="77"
       y2="82.5"
       gradientUnits="userSpaceOnUse"
       gradientTransform="matrix(0.99997309,0,0,1.0089288,-1.345743e-4,0.26561951)" />
    <linearGradient
       id="linearGradient3637">
      <stop
         offset="0"
         style="stop-color:#f0f0f0;stop-opacity:1"
         id="stop3639" />
      <stop
         offset="1"
         style="stop-color:#aaaaaa;stop-opacity:1"
         id="stop3641" />
    </linearGradient>
    <linearGradient
       gradientTransform="scale(1.0058652,0.994169)"
       gradientUnits="userSpaceOnUse"
       id="ButtonShadow"
       y2="7.0165396"
       x2="45.447727"
       y1="92.539597"
       x1="45.447727">
      <stop
         offset="0"
         style="stop-color:#000000;stop-opacity:1"
         id="stop3750" />
      <stop
         offset="1"
         style="stop-color:#000000;stop-opacity:0.58823532"
         id="stop3752" />
    </linearGradient>
    <linearGradient
       id="linearGradient3700">
      <stop
         offset="0"
         style="stop-color:#2276c5;stop-opacity:1"
         id="stop3702" />
      <stop
         offset="1"
         style="stop-color:#68baf4;stop-opacity:1"
         id="stop3704" />
    </linearGradient>
    <filter
       id="filter3174"
       color-interpolation-filters="sRGB">
      <feGaussianBlur
         stdDeviation="1.71"
         id="feGaussianBlur3176" />
    </filter>
    <linearGradient
       gradientUnits="userSpaceOnUse"
       xlink:href="#linearGradient2219"
       id="linearGradient3188"
       y2="63.893143"
       x2="36.357143"
       y1="6"
       x1="36.357143" />
    <filter
       id="filter3794"
       color-interpolation-filters="sRGB"
       height="1.3839999"
       width="1.3839999"
       y="-0.192"
       x="-0.192">
      <feGaussianBlur
         stdDeviation="5.28"
         id="feGaussianBlur3796" />
    </filter>
    <linearGradient
       gradientUnits="userSpaceOnUse"
       xlink:href="#linearGradient2219"
       id="linearGradient3613"
       y2="138.66119"
       x2="48"
       y1="20.220806"
       x1="48" />
    <radialGradient
       gradientTransform="matrix(1.1573129,0,0,0.99590774,-7.5510206,0.19713193)"
       gradientUnits="userSpaceOnUse"
       xlink:href="#linearGradient2219"
       id="radialGradient3619"
       fy="90.171875"
       fx="48"
       r="42"
       cy="90.171875"
       cx="48" />
    <clipPath
       id="clipPath3613">
      <rect
         style="fill:#ffffff;fill-opacity:1;fill-rule:nonzero;stroke:none"
         id="rect3615"
         y="6"
         x="6"
         ry="6"
         rx="6"
         height="84"
         width="84" />
    </clipPath>
    <linearGradient
       gradientTransform="translate(0,100)"
       gradientUnits="userSpaceOnUse"
       xlink:href="#linearGradient3700"
       id="linearGradient2843"
       y2="5.9877172"
       x2="48"
       y1="90"
       x1="48" />
    <clipPath
       id="clipPath3625">
      <path
         style="fill:#ffffff;fill-opacity:1;stroke:none"
         id="path3627"
         inkscape:connector-curvature="0"
         d="M 0,0 0,96 96,96 96,0 0,0 z m 12,6 72,0 c 3.324,0 6,2.676 6,6 l 0,72 c 0,3.324 -2.676,6 -6,6 L 12,90 C 8.676,90 6,87.324 6,84 L 6,12 C 6,8.676 8.676,6 12,6 z" />
    </clipPath>
    <linearGradient
       gradientUnits="userSpaceOnUse"
       xlink:href="#linearGradient3637"
       id="linearGradient3643"
       y2="90.015434"
       x2="44.512066"
       y1="6"
       x1="44.512066" />
    <clipPath
       id="clipPath3649">
      <rect
         style="fill:#ffffff;fill-opacity:1;fill-rule:nonzero;stroke:none"
         id="rect3651"
         y="10"
         x="10"
         ry="4"
         rx="4"
         height="76"
         width="76" />
    </clipPath>
    <filter
       id="filter3657"
       color-interpolation-filters="sRGB">
      <feGaussianBlur
         stdDeviation="1.14"
         id="feGaussianBlur3659" />
    </filter>
    <linearGradient
       gradientTransform="matrix(1.0058652,0,0,0.994169,100,0)"
       gradientUnits="userSpaceOnUse"
       id="ButtonShadow-0"
       y2="7.0165396"
       x2="45.447727"
       y1="92.539597"
       x1="45.447727">
      <stop
         offset="0"
         style="stop-color:#000000;stop-opacity:1"
         id="stop3750-8" />
      <stop
         offset="1"
         style="stop-color:#000000;stop-opacity:0.58823532"
         id="stop3752-5" />
    </linearGradient>
    <linearGradient
       gradientTransform="matrix(1.0238095,0,0,-1.0119048,-1.1428571,98.071429)"
       gradientUnits="userSpaceOnUse"
       xlink:href="#ButtonShadow-0"
       id="linearGradient3780"
       y2="90.238609"
       x2="32.251034"
       y1="6.1317081"
       x1="32.251034" />
    <linearGradient
       gradientTransform="matrix(1,0,0,-1,0,97)"
       gradientUnits="userSpaceOnUse"
       xlink:href="#ButtonShadow-0"
       id="linearGradient3721"
       y2="90.238609"
       x2="32.251034"
       y1="6.1317081"
       x1="32.251034" />
    <linearGradient
       gradientUnits="userSpaceOnUse"
       xlink:href="#linearGradient2219"
       id="linearGradient3188-8"
       y2="63.893143"
       x2="36.357143"
       y1="6"
       x1="36.357143" />
    <radialGradient
       gradientTransform="matrix(1.1573129,0,0,0.99590774,-7.551021,0.1971319)"
       gradientUnits="userSpaceOnUse"
       xlink:href="#linearGradient2219"
       id="radialGradient3619-3"
       fy="90.171875"
       fx="48"
       r="42"
       cy="90.171875"
       cx="48" />
    <linearGradient
       gradientTransform="translate(-104,104)"
       gradientUnits="userSpaceOnUse"
       xlink:href="#linearGradient3637"
       id="linearGradient3905"
       y2="8"
       x2="120"
       y1="8"
       x1="104" />
    <linearGradient
       gradientTransform="translate(-144,104)"
       gradientUnits="userSpaceOnUse"
       xlink:href="#linearGradient3183-0"
       id="linearGradient3913"
       y2="8"
       x2="120"
       y1="8"
       x1="104" />
    <linearGradient
       id="linearGradient3183-0">
      <stop
         offset="0"
         style="stop-color:#c80000;stop-opacity:1"
         id="stop3185-9" />
      <stop
         offset="1"
         style="stop-color:#f3604d;stop-opacity:1"
         id="stop3187-6" />
    </linearGradient>
    <linearGradient
       gradientTransform="matrix(2.819164,0,0,2.819164,15.399593,18.515788)"
       gradientUnits="userSpaceOnUse"
       xlink:href="#linearGradient3637"
       id="linearGradient3018"
       y2="18.974037"
       x2="10.710332"
       y1="1.9963325"
       x1="10.710332" />
    <linearGradient
       y2="8"
       x2="120"
       y1="8"
       x1="104"
       gradientTransform="translate(-150.51136,271.83878)"
       gradientUnits="userSpaceOnUse"
       id="linearGradient4557"
       xlink:href="#linearGradient3183-0"
       inkscape:collect="always" />
    <linearGradient
       y2="18.974037"
       x2="10.710332"
       y1="1.9963325"
       x1="10.710332"
       gradientTransform="matrix(2.819164,0,0,2.819164,183.23837,25.02715)"
       gradientUnits="userSpaceOnUse"
       id="linearGradient4575"
       xlink:href="#linearGradient3637"
       inkscape:collect="always" />
    <linearGradient
       y2="494.505"
       x2="-10"
       y1="482.36215"
       x1="-37.142857"
       gradientTransform="translate(110.89286,1.4285329)"
       gradientUnits="userSpaceOnUse"
       id="linearGradient4438"
       xlink:href="#linearGradient4258"
       inkscape:collect="always" />
    <linearGradient
       inkscape:collect="always"
       id="linearGradient4258">
      <stop
         style="stop-color:#e2a05b;stop-opacity:1"
         offset="0"
         id="stop4260" />
      <stop
         style="stop-color:#ecc196;stop-opacity:1"
         offset="1"
         id="stop4262" />
    </linearGradient>
    <linearGradient
       y2="494.505"
       x2="-10"
       y1="482.36215"
       x1="-37.142857"
       gradientTransform="translate(-270.53572,2.8571229)"
       gradientUnits="userSpaceOnUse"
       id="linearGradient4440-0"
       xlink:href="#linearGradient4258"
       inkscape:collect="always" />
    <linearGradient
       y2="580.2193"
       x2="130"
       y1="412.36215"
       x1="130"
       gradientTransform="translate(62.857136,7.8571463)"
       gradientUnits="userSpaceOnUse"
       id="linearGradient4442"
       xlink:href="#linearGradient3378"
       inkscape:collect="always" />
    <linearGradient
       inkscape:collect="always"
       id="linearGradient3378">
      <stop
         style="stop-color:#bf9462;stop-opacity:1"
         offset="0"
         id="stop3380" />
      <stop
         style="stop-color:#7b531d;stop-opacity:1"
         offset="1"
         id="stop3382" />
    </linearGradient>
    <linearGradient
       y2="521.64789"
       x2="-47.857143"
       y1="332.36215"
       x1="-47.142857"
       gradientTransform="translate(240.71429,82.142857)"
       gradientUnits="userSpaceOnUse"
       id="linearGradient4444"
       xlink:href="#linearGradient4210"
       inkscape:collect="always" />
    <linearGradient
       inkscape:collect="always"
       id="linearGradient4210">
      <stop
         style="stop-color:#9b5401;stop-opacity:1"
         offset="0"
         id="stop4212" />
      <stop
         style="stop-color:#7a4f13;stop-opacity:1"
         offset="1"
         id="stop4214" />
    </linearGradient>
    <radialGradient
       r="79.927666"
       fy="486.97372"
       fx="126.40758"
       cy="486.97372"
       cx="126.40758"
       spreadMethod="pad"
       gradientTransform="matrix(1,0,0,1.0565585,171.66381,-543.54202)"
       gradientUnits="userSpaceOnUse"
       id="radialGradient4446"
       xlink:href="#linearGradient4370"
       inkscape:collect="always" />
    <linearGradient
       inkscape:collect="always"
       id="linearGradient4370">
      <stop
         style="stop-color:#f5deca;stop-opacity:1"
         offset="0"
         id="stop4372" />
      <stop
         style="stop-color:#e2a25d;stop-opacity:1"
         offset="1"
         id="stop4374" />
    </linearGradient>
  </defs>
  <sodipodi:namedview
     id="base"
     pagecolor="#ffffff"
     bordercolor="#666"
     borderopacity="0.09019608"
     inkscape:pageopacity="0.0"
     inkscape:pageshadow="2"
     inkscape:zoom="2.8284271"
     inkscape:cx="-45.500398"
     inkscape:cy="34.124969"
     inkscape:current-layer="layer1"
     showgrid="false"
     inkscape:grid-bbox="false"
     inkscape:document-units="px"
     inkscape:grid-points="false"
     inkscape:window-width="1496"
     inkscape:window-height="890"
     inkscape:window-x="22"
     inkscape:window-y="510"
     fill="#729fcf"
     showguides="true"
     inkscape:guide-bbox="true"
     inkscape:showpageshadow="false"
     showborder="true"
     inkscape:window-maximized="0">
    <inkscape:grid
       id="GridFromPre046Settings"
       type="xygrid"
       originx="0px"
       originy="0px"
       spacingx="0.5px"
       spacingy="0.5px"
       color="#0000ff"
       empcolor="#0000ff"
       opacity="0.2"
       empopacity="0.4"
       empspacing="2" />
  </sodipodi:namedview>
  <metadata
     id="metadata1312">
    <rdf:RDF>
      <cc:Work
         rdf:about="">
        <dc:format>image/svg+xml</dc:format>
        <dc:type
           rdf:resource="http://purl.org/dc/dcmitype/StillImage" />
        <dc:creator>
          <cc:Agent>
            <dc:title>Ulisse Perusin</dc:title>
          </cc:Agent>
        </dc:creator>
        <dc:title />
        <dc:language>emoticons monkey</dc:language>
        <cc:license
           rdf:resource="http://creativecommons.org/publicdomain/zero/1.0/" />
        <dc:date>18/05/2006</dc:date>
      </cc:Work>
      <cc:License
         rdf:about="http://creativecommons.org/publicdomain/zero/1.0/">
        <cc:permits
           rdf:resource="http://creativecommons.org/ns#Reproduction" />
        <cc:permits
           rdf:resource="http://creativecommons.org/ns#Distribution" />
        <cc:permits
           rdf:resource="http://creativecommons.org/ns#DerivativeWorks" />
      </cc:License>
    </rdf:RDF>
  </metadata>
  <g
     id="layer1"
     inkscape:label="Layer 1"
     inkscape:groupmode="layer">
    <rect
       style="opacity:0.70800003;fill:url(#linearGradient4330);fill-opacity:1;stroke:#000000;stroke-width:1.0044409;stroke-miterlimit:4;stroke-dasharray:none;stroke-opacity:1"
       id="rect4322"
       width="164.99556"
       height="112.49556"
       x="-87.49778"
       y="-29.49778"
       rx="1.0249125"
       ry="0.91371214"
       inkscape:export-filename="E:\repos\Adam\SM\trunk\src\main\resources\images\about.png"
       inkscape:export-xdpi="281.92999"
       inkscape:export-ydpi="281.92999" />
    <text
       xml:space="preserve"
       style="font-style:normal;font-weight:normal;font-size:25.56422806px;line-height:125%;font-family:sans-serif;letter-spacing:0px;word-spacing:0px;fill:#000000;fill-opacity:1;stroke:none;stroke-width:1px;stroke-linecap:butt;stroke-linejoin:miter;stroke-opacity:1"
       x="-86.615295"
       y="-7.4583044"
       id="text4289"
       sodipodi:linespacing="125%"
       inkscape:export-filename="E:\repos\Adam\SM\trunk\src\main\resources\images\about.png"
       inkscape:export-xdpi="281.92999"
       inkscape:export-ydpi="281.92999"><tspan
         sodipodi:role="line"
         id="tspan4291"
         x="-86.615295"
         y="-7.4583044"
         style="font-style:normal;font-variant:normal;font-weight:normal;font-stretch:condensed;font-family:Impact;-inkscape-font-specification:'Impact Condensed'"><tspan
           style="fill:#fff6d5"
           id="tspan4295">SEARCH</tspan><tspan
           style="fill:#ffdd55"
           id="tspan4293">MONKEY</tspan></tspan></text>
    <g
       id="layer2"
       style="display:none"
       transform="translate(-97.5,120.5)">
      <rect
         width="86"
         height="85"
         rx="6"
         ry="6"
         x="5"
         y="7"
         clip-path="url(#clipPath3625)"
         id="rect3745"
         style="opacity:0.9;fill:url(#ButtonShadow);fill-opacity:1;fill-rule:nonzero;stroke:none;filter:url(#filter3174)" />
    </g>
    <g
       id="layer1-2"
       style="display:none"
       transform="translate(-97.5,120.5)">
      <rect
         width="84"
         height="84"
         rx="6"
         ry="6"
         x="6"
         y="6"
         id="rect2419"
         style="opacity:0.8;fill:#000000;fill-opacity:1;fill-rule:nonzero;stroke:none" />
      <path
         d="m 14,10 c -2.216,0 -4,1.784 -4,4 l 0,68 c 0,2.216 1.784,4 4,4 l 68,0 c 2.216,0 4,-1.784 4,-4 l 0,-68 c 0,-2.216 -1.784,-4 -4,-4 l -68,0 z m 0,3.0625 68,0 c 0.578769,0 0.9375,0.358731 0.9375,0.9375 l 0,68 c 0,0.578769 -0.358731,0.9375 -0.9375,0.9375 l -68,0 c -0.578769,0 -0.9375,-0.358731 -0.9375,-0.9375 l 0,-68 c 0,-0.578769 0.358731,-0.9375 0.9375,-0.9375 z"
         inkscape:connector-curvature="0"
         id="rect3726"
         style="opacity:0.07999998;fill:#000000;fill-opacity:1;fill-rule:nonzero;stroke:none" />
      <path
         d="M 12,6 C 8.676,6 6,8.676 6,12 l 0,72 c 0,3.324 2.676,6 6,6 l 72,0 c 3.324,0 6,-2.676 6,-6 L 90,12 C 90,8.676 87.324,6 84,6 L 12,6 Z m 2,4 68,0 c 2.216,0 4,1.784 4,4 l 0,68 c 0,2.216 -1.784,4 -4,4 l -68,0 c -2.216,0 -4,-1.784 -4,-4 l 0,-68 c 0,-2.216 1.784,-4 4,-4 z"
         inkscape:connector-curvature="0"
         id="rect3629"
         style="fill:url(#linearGradient3643);fill-opacity:1;fill-rule:nonzero;stroke:none" />
      <path
         d="M 12,6 C 8.676,6 6,8.676 6,12 l 0,2 0,68 0,2 c 0,0.334721 0.04135,0.6507 0.09375,0.96875 0.0487,0.295596 0.09704,0.596915 0.1875,0.875 0.00988,0.03038 0.020892,0.0636 0.03125,0.09375 0.098865,0.287771 0.2348802,0.547452 0.375,0.8125 0.1445918,0.273507 0.3156161,0.535615 0.5,0.78125 0.1843839,0.245635 0.3737765,0.473472 0.59375,0.6875 0.439947,0.428056 0.94291,0.814526 1.5,1.09375 0.278545,0.139612 0.5734731,0.246947 0.875,0.34375 -0.2562018,-0.100222 -0.4867109,-0.236272 -0.71875,-0.375 -0.00741,-0.0044 -0.023866,0.0045 -0.03125,0 -0.031933,-0.0193 -0.062293,-0.04251 -0.09375,-0.0625 -0.120395,-0.0767 -0.2310226,-0.163513 -0.34375,-0.25 -0.1061728,-0.0808 -0.2132809,-0.161112 -0.3125,-0.25 C 8.4783201,88.557317 8.3087904,88.373362 8.15625,88.1875 8.0486711,88.057245 7.9378561,87.922215 7.84375,87.78125 7.818661,87.74287 7.805304,87.69538 7.78125,87.65625 7.716487,87.553218 7.6510225,87.451733 7.59375,87.34375 7.4927417,87.149044 7.3880752,86.928049 7.3125,86.71875 7.30454,86.69694 7.288911,86.6782 7.28125,86.65625 7.2494249,86.5643 7.2454455,86.469419 7.21875,86.375 7.1884177,86.268382 7.1483606,86.171969 7.125,86.0625 7.0521214,85.720988 7,85.364295 7,85 L 7,83 7,15 7,13 C 7,10.218152 9.2181517,8 12,8 l 2,0 68,0 2,0 c 2.781848,0 5,2.218152 5,5 l 0,2 0,68 0,2 c 0,0.364295 -0.05212,0.720988 -0.125,1.0625 -0.04415,0.206893 -0.08838,0.397658 -0.15625,0.59375 -0.0077,0.02195 -0.0233,0.04069 -0.03125,0.0625 -0.06274,0.173739 -0.138383,0.367449 -0.21875,0.53125 -0.04158,0.0828 -0.07904,0.169954 -0.125,0.25 -0.0546,0.09721 -0.126774,0.18835 -0.1875,0.28125 -0.09411,0.140965 -0.204921,0.275995 -0.3125,0.40625 -0.143174,0.17445 -0.303141,0.346998 -0.46875,0.5 -0.01117,0.0102 -0.01998,0.02115 -0.03125,0.03125 -0.138386,0.125556 -0.285091,0.234436 -0.4375,0.34375 -0.102571,0.07315 -0.204318,0.153364 -0.3125,0.21875 -0.0074,0.0045 -0.02384,-0.0044 -0.03125,0 -0.232039,0.138728 -0.462548,0.274778 -0.71875,0.375 0.301527,-0.0968 0.596455,-0.204138 0.875,-0.34375 0.55709,-0.279224 1.060053,-0.665694 1.5,-1.09375 0.219973,-0.214028 0.409366,-0.441865 0.59375,-0.6875 0.184384,-0.245635 0.355408,-0.507743 0.5,-0.78125 0.14012,-0.265048 0.276135,-0.524729 0.375,-0.8125 0.01041,-0.03078 0.02133,-0.06274 0.03125,-0.09375 0.09046,-0.278085 0.1388,-0.579404 0.1875,-0.875 C 89.95865,84.6507 90,84.334721 90,84 l 0,-2 0,-68 0,-2 C 90,8.676 87.324,6 84,6 L 12,6 Z"
         inkscape:connector-curvature="0"
         id="rect3728"
         style="fill:url(#linearGradient3188);fill-opacity:1;fill-rule:nonzero;stroke:none" />
      <path
         d="M 12,90 C 8.676,90 6,87.324 6,84 L 6,82 6,14 6,12 c 0,-0.334721 0.04135,-0.6507 0.09375,-0.96875 0.0487,-0.295596 0.09704,-0.596915 0.1875,-0.875 C 6.29113,10.12587 6.302142,10.09265 6.3125,10.0625 6.411365,9.774729 6.5473802,9.515048 6.6875,9.25 6.8320918,8.976493 7.0031161,8.714385 7.1875,8.46875 7.3718839,8.223115 7.5612765,7.995278 7.78125,7.78125 8.221197,7.353194 8.72416,6.966724 9.28125,6.6875 9.559795,6.547888 9.8547231,6.440553 10.15625,6.34375 9.9000482,6.443972 9.6695391,6.580022 9.4375,6.71875 c -0.00741,0.0044 -0.023866,-0.0045 -0.03125,0 -0.031933,0.0193 -0.062293,0.04251 -0.09375,0.0625 -0.120395,0.0767 -0.2310226,0.163513 -0.34375,0.25 -0.1061728,0.0808 -0.2132809,0.161112 -0.3125,0.25 C 8.4783201,7.442683 8.3087904,7.626638 8.15625,7.8125 8.0486711,7.942755 7.9378561,8.077785 7.84375,8.21875 7.818661,8.25713 7.805304,8.30462 7.78125,8.34375 7.716487,8.446782 7.6510225,8.548267 7.59375,8.65625 7.4927417,8.850956 7.3880752,9.071951 7.3125,9.28125 7.30454,9.30306 7.288911,9.3218 7.28125,9.34375 7.2494249,9.4357 7.2454455,9.530581 7.21875,9.625 7.1884177,9.731618 7.1483606,9.828031 7.125,9.9375 7.0521214,10.279012 7,10.635705 7,11 l 0,2 0,68 0,2 c 0,2.781848 2.2181517,5 5,5 l 2,0 68,0 2,0 c 2.781848,0 5,-2.218152 5,-5 l 0,-2 0,-68 0,-2 C 89,10.635705 88.94788,10.279012 88.875,9.9375 88.83085,9.730607 88.78662,9.539842 88.71875,9.34375 88.71105,9.3218 88.69545,9.30306 88.6875,9.28125 88.62476,9.107511 88.549117,8.913801 88.46875,8.75 88.42717,8.6672 88.38971,8.580046 88.34375,8.5 88.28915,8.40279 88.216976,8.31165 88.15625,8.21875 88.06214,8.077785 87.951329,7.942755 87.84375,7.8125 87.700576,7.63805 87.540609,7.465502 87.375,7.3125 87.36383,7.3023 87.35502,7.29135 87.34375,7.28125 87.205364,7.155694 87.058659,7.046814 86.90625,6.9375 86.803679,6.86435 86.701932,6.784136 86.59375,6.71875 c -0.0074,-0.0045 -0.02384,0.0044 -0.03125,0 -0.232039,-0.138728 -0.462548,-0.274778 -0.71875,-0.375 0.301527,0.0968 0.596455,0.204138 0.875,0.34375 0.55709,0.279224 1.060053,0.665694 1.5,1.09375 0.219973,0.214028 0.409366,0.441865 0.59375,0.6875 0.184384,0.245635 0.355408,0.507743 0.5,0.78125 0.14012,0.265048 0.276135,0.524729 0.375,0.8125 0.01041,0.03078 0.02133,0.06274 0.03125,0.09375 0.09046,0.278085 0.1388,0.579404 0.1875,0.875 C 89.95865,11.3493 90,11.665279 90,12 l 0,2 0,68 0,2 c 0,3.324 -2.676,6 -6,6 l -72,0 z"
         inkscape:connector-curvature="0"
         id="path3615"
         style="opacity:0.6;fill:url(#radialGradient3619);fill-opacity:1;fill-rule:nonzero;stroke:none" />
      <rect
         width="84"
         height="84"
         rx="6"
         ry="6"
         x="6"
         y="106"
         id="rect2841"
         style="fill:url(#linearGradient2843);fill-opacity:1;fill-rule:nonzero;stroke:none" />
      <rect
         width="76"
         height="76"
         rx="4"
         ry="4"
         x="10"
         y="110"
         id="rect3634"
         style="fill:#ff0000;fill-opacity:1;fill-rule:nonzero;stroke:none" />
      <path
         d="m 14,9 c -2.752703,0 -5,2.247297 -5,5 l 0,68 c 0,2.752703 2.247297,5 5,5 l 68,0 c 2.752703,0 5,-2.247297 5,-5 L 87,14 C 87,11.247297 84.752703,9 82,9 L 14,9 Z m 0,2 68,0 c 1.679297,0 3,1.320703 3,3 l 0,68 c 0,1.679297 -1.320703,3 -3,3 l -68,0 c -1.679297,0 -3,-1.320703 -3,-3 l 0,-68 c 0,-1.679297 1.320703,-3 3,-3 z"
         inkscape:connector-curvature="0"
         transform="translate(-110,0)"
         clip-path="url(#clipPath3649)"
         id="rect3647"
         style="color:#000000;font-style:normal;font-variant:normal;font-weight:normal;font-stretch:normal;font-size:medium;line-height:normal;font-family:'Abandoned Bitplane';-inkscape-font-specification:'Abandoned Bitplane';text-indent:0;text-align:start;text-decoration:none;text-decoration-line:none;letter-spacing:normal;word-spacing:normal;text-transform:none;direction:ltr;block-progression:tb;writing-mode:lr-tb;text-anchor:start;display:inline;overflow:visible;visibility:visible;fill:#000000;fill-opacity:1;stroke:none;stroke-width:2;marker:none;filter:url(#filter3657);enable-background:accumulate" />
      <path
         d="m 14.089286,10 c -2.216,0 -4,1.784 -4,4 l 0,68 c 0,2.216 1.784,4 4,4 l 68,0 c 2.216,0 4,-1.784 4,-4 l 0,-68 c 0,-2.216 -1.784,-4 -4,-4 l -68,0 z m 0,2 68,0 c 1.140301,0 2,0.859699 2,2 l 0,68 c 0,1.140301 -0.859699,2 -2,2 l -68,0 c -1.140301,0 -2,-0.859699 -2,-2 l 0,-68 c 0,-1.140301 0.859699,-2 2,-2 z"
         inkscape:connector-curvature="0"
         id="path3709"
         style="opacity:0.16000001;fill:#000000;fill-opacity:1;fill-rule:nonzero;stroke:none" />
      <path
         d="m 14,10 c -2.216,0 -4,1.784 -4,4 l 0,68 c 0,2.216 1.784,4 4,4 l 68,0 c 2.216,0 4,-1.784 4,-4 l 0,-68 c 0,-2.216 -1.784,-4 -4,-4 l -68,0 z m 0,1 68,0 c 1.673848,0 3,1.326152 3,3 l 0,68 c 0,1.673848 -1.326152,3 -3,3 l -68,0 c -1.673848,0 -3,-1.326152 -3,-3 l 0,-68 c 0,-1.673848 1.326152,-3 3,-3 z"
         inkscape:connector-curvature="0"
         id="path3707"
         style="opacity:0.36000001;fill:#000000;fill-opacity:1;fill-rule:nonzero;stroke:none" />
    </g>
    <g
       id="layer5"
       style="display:none"
       transform="translate(-97.5,120.5)">
      <rect
         width="66"
         height="66"
         rx="12"
         ry="12"
         x="15"
         y="15"
         clip-path="url(#clipPath3613)"
         id="rect3171"
         style="opacity:0.1;fill:url(#linearGradient3613);fill-opacity:1;fill-rule:nonzero;stroke:#ffffff;stroke-width:0.5;stroke-linecap:round;stroke-linejoin:miter;stroke-miterlimit:4;stroke-dasharray:none;stroke-dashoffset:0;stroke-opacity:1;filter:url(#filter3794)" />
    </g>
    <g
       id="g4499"
       transform="translate(45.266302,-129.43506)">
      <g
         transform="matrix(0.26437214,0,0,0.31198111,-129.35688,185.41214)"
         id="g4421">
        <g
           id="g4235"
           transform="translate(108.09239,-568.34579)">
          <ellipse
             ry="44.285713"
             rx="34.285713"
             cy="493.07645"
             cx="84.285706"
             id="path4218-8"
             style="fill:#986116;fill-opacity:1;stroke:#3d280a;stroke-width:5;stroke-miterlimit:4;stroke-dasharray:none;stroke-opacity:1" />
          <ellipse
             style="fill:url(#linearGradient4438);fill-opacity:1;stroke:#50340d;stroke-width:5.14262152;stroke-miterlimit:4;stroke-dasharray:none;stroke-opacity:1"
             id="path4241"
             cx="86.964287"
             cy="491.64786"
             rx="26.000118"
             ry="29.928688" />
          <ellipse
             ry="44.285713"
             rx="34.285713"
             cy="492.36218"
             cx="297.85715"
             id="path4218"
             style="fill:#93621f;fill-opacity:1;stroke:#3d280a;stroke-width:5;stroke-miterlimit:4;stroke-dasharray:none;stroke-opacity:1" />
          <ellipse
             style="fill:url(#linearGradient4440-0);fill-opacity:1;stroke:#50340d;stroke-width:5.14262152;stroke-miterlimit:4;stroke-dasharray:none;stroke-opacity:1"
             id="path4241-4"
             cx="-294.46426"
             cy="493.07645"
             rx="26.000118"
             ry="29.928688"
             transform="scale(-1,1)" />
          <path
             sodipodi:nodetypes="czczc"
             inkscape:connector-curvature="0"
             id="path3376"
             d="m 107.14286,505.93359 c -22.858814,-68.28713 23.32701,-118.14141 98.57143,-112.14286 75.24442,5.99855 85.86447,81.9635 72.85714,108.57143 C 321.38383,585.63671 269.63665,629.57518 180,620.93358 90.363356,612.29198 68.678356,549.18129 107.14286,505.93359 Z"
             style="fill:url(#linearGradient4442);fill-opacity:1;fill-rule:evenodd;stroke:#3d280a;stroke-width:5;stroke-linecap:butt;stroke-linejoin:miter;stroke-miterlimit:4;stroke-dasharray:none;stroke-opacity:1" />
          <path
             sodipodi:nodetypes="czczc"
             inkscape:connector-curvature="0"
             id="path3376-8"
             d="m 115.09402,506.3606 c -20.958934,-63.67789 21.38821,-110.16708 90.37876,-104.57343 68.99055,5.59365 78.72793,76.43111 66.80169,101.24307 39.2541,77.65369 -8.19217,118.62638 -90.37876,110.56814 C 99.709126,605.54005 79.826446,546.68917 115.09402,506.3606 Z"
             style="fill:url(#linearGradient4444);fill-opacity:1;fill-rule:evenodd;stroke:none" />
        </g>
        <path
           style="fill:#efcaa6;fill-opacity:1;fill-rule:evenodd;stroke:#7d5318;stroke-width:5;stroke-linecap:butt;stroke-linejoin:miter;stroke-miterlimit:4;stroke-dasharray:none;stroke-opacity:1"
           d="m 300.94952,-117.41218 c -42.82089,-56.49775 -99.5754,-2.65163 -71.42857,59.99999 -49.96413,53.37888 -0.54928,104.97761 72.85715,103.57141 73.40642,-1.4062 121.12172,-55.01229 68.57142,-104.28569 30.46546,-52.34242 -26.90752,-121.06087 -70,-59.28571 z"
           id="path4353"
           inkscape:connector-curvature="0"
           sodipodi:nodetypes="cczcc" />
        <path
           style="fill:url(#radialGradient4446);fill-opacity:1;fill-rule:evenodd;stroke:none"
           d="m 302.49203,-102.36839 c -38.42902,-60.96113 -92.46917,-9.43405 -61.71963,47.55877 -52.45846,52.55192 -1.90319,92.13704 61.52546,90.92206 63.42863,-1.21505 108.22966,-39.67764 60.67941,-91.53925 28.46729,-52.37063 -21.10726,-114.60565 -60.48524,-46.94158 z"
           id="path4353-4"
           inkscape:connector-curvature="0"
           sodipodi:nodetypes="cczcc" />
        <path
           style="fill:#000000;fill-rule:evenodd;stroke:#eabf94;stroke-width:1px;stroke-linecap:butt;stroke-linejoin:miter;stroke-opacity:1"
           d="m 245.23524,-36.6979 c 16.31294,24.0983 61.2047,25.12936 94.28571,22.85714 3.49227,18.46383 -4.38699,46.68506 -40.71429,40.71429 -36.32729,-5.97077 -65.915,-24.75511 -53.57142,-63.57143 z"
           id="path4380"
           inkscape:connector-curvature="0"
           sodipodi:nodetypes="cczc" />
        <path
           style="fill:#ffffff;fill-rule:evenodd;stroke:#000000;stroke-width:1px;stroke-linecap:butt;stroke-linejoin:miter;stroke-opacity:1"
           d="m 244.13482,-35.71408 c 14.17008,21.24116 61.2047,25.12936 94.28571,22.85714 -4.36487,19.17812 -20.81557,13.11363 -45.71429,10.71429 -24.89872,-2.39934 -48.77214,-6.18368 -48.57142,-33.57143 z"
           id="path4380-8"
           inkscape:connector-curvature="0"
           sodipodi:nodetypes="cczc" />
        <path
           style="fill:#d90c28;fill-opacity:1;fill-rule:evenodd;stroke:#000000;stroke-width:1px;stroke-linecap:butt;stroke-linejoin:miter;stroke-opacity:1"
           d="M 302.891,20.32961 C 292.1479,12.13986 282.96501,8.47495 266.46243,11.0439 c 4.76731,6.81922 19.56496,13.21347 30.54097,14.4516 10.97601,1.23813 18.76949,-0.50012 27.06364,-2.51795 C 316.43482,11.42654 283.59384,7.92478 302.891,20.32961 Z"
           id="path4397"
           inkscape:connector-curvature="0"
           sodipodi:nodetypes="cczcc" />
        <ellipse
           style="fill:#000000;fill-opacity:1;stroke:none"
           id="path4399"
           cx="415.40543"
           cy="877.60577"
           rx="11.889099"
           ry="15.152288"
           transform="translate(-90.975848,-960.37418)" />
        <ellipse
           style="fill:#000000;fill-opacity:1;stroke:none"
           id="path4399-6"
           cx="365.6752"
           cy="877.10071"
           rx="17.865835"
           ry="23.233509"
           transform="translate(-90.975848,-960.37418)" />
        <path
           style="opacity:0.54900004;fill:#ffffff;fill-rule:evenodd;stroke:none"
           d="m 240.85925,-76.7075 c 0,0 -8.15724,-25.71708 10.60661,-37.37564 18.76385,-11.65856 37.88073,4.54568 37.88073,4.54568 0,0 1.40065,21.18871 -16.16244,31.31473 -17.5631,10.12602 -32.3249,1.51523 -32.3249,1.51523 z"
           id="path4428"
           inkscape:connector-curvature="0"
           sodipodi:nodetypes="czczc" />
      </g>
      <g
         transform="translate(-267.5,110.5)"
         id="g4567">
        <path
           style="display:inline;opacity:0.1;fill:#000000;fill-opacity:1;stroke:none"
           id="path3931"
           inkscape:connector-curvature="0"
           d="m 208.77628,29.511362 c -4.84395,0 -9.71342,1.820697 -13.40625,5.5 -7.38588,7.358815 -7.38588,19.391184 0,26.75 6.23579,6.212947 15.78404,7.171398 23.0625,2.875 0.41135,0.02642 0.84455,0.03012 1.15625,0.09375 0.13297,0.02714 0.23201,0.08487 0.34375,0.125 1.9e-4,0.194814 -0.005,0.45197 0,0.875 0.0109,0.930421 0.34009,2.249073 1.25,3.40625 0.006,0.0074 -0.006,0.02388 0,0.03125 0.01,0.02119 0.0201,0.04204 0.0312,0.0625 0.0341,0.185723 0.12189,0.361271 0.25,0.5 l 10.375,10.5 c 0.03,0.02257 0.0614,0.04344 0.0937,0.0625 0.0491,0.03589 0.10147,0.06732 0.15625,0.09375 0.11459,0.101855 0.24078,0.242786 0.4375,0.375 0.41011,0.275632 1.02244,0.595464 1.78125,0.71875 1.55373,0.252438 3.51185,-0.331059 5.34375,-2.15625 1.83435,-1.827629 2.413,-3.790593 2.15625,-5.34375 -0.24036,-1.45401 -1.1133,-2.274545 -1.25,-2.40625 -0.002,-0.0018 0.002,-0.0297 0,-0.03125 l 0,-0.03125 -10.3125,-10.4375 c -0.0659,-0.07279 -0.072,-0.07517 -0.0312,-0.03125 -1.27714,-1.374959 -3.00963,-1.548902 -4.0625,-1.5625 -0.4115,-0.0053 -0.64289,-6.89e-4 -0.84375,0 -0.0333,-0.101378 -0.0702,-0.190933 -0.0937,-0.3125 -0.0617,-0.317975 -0.0984,-0.747926 -0.125,-1.15625 4.31484,-7.256518 3.36263,-16.785232 -2.875,-23 -3.69707,-3.683521 -8.59387,-5.5 -13.4375,-5.5 z m 0.0625,9.625 c 5.15636,0 9.3125,4.12946 9.3125,9.25 0,5.120544 -4.15613,9.25 -9.3125,9.25 -5.15676,3e-6 -9.28125,-4.122074 -9.28125,-9.25 0,-2.55645 1.07342,-4.892063 2.75,-6.5625 1.68045,-1.674298 3.93489,-2.6875 6.53125,-2.6875 z" />
        <path
           style="display:inline;opacity:0.15;fill:#000000;fill-opacity:1;stroke:none"
           id="path3927"
           inkscape:connector-curvature="0"
           d="m 208.77628,30.511362 c -4.59128,0 -9.18841,1.732481 -12.6875,5.21875 -6.99934,6.973697 -6.99934,18.338802 0,25.3125 6.00255,5.980564 15.22856,6.850372 22.15625,2.5625 0.48901,0.03056 1.0402,0.05601 1.53125,0.15625 0.58132,0.118672 1.02917,0.368578 1.0625,0.40625 0.0118,0.01333 0.0693,0.09876 0.0937,0.375 0.0244,0.276244 -0.006,0.707659 0,1.1875 0.011,0.94295 0.21715,2.253103 1.28125,3.25 l -0.0312,0.03125 10.375,10.5 0.0312,0 c 0.0268,0.02773 0.71222,0.77983 1.875,0.96875 1.18509,0.192544 2.80961,-0.221937 4.46875,-1.875 1.65876,-1.652679 2.07045,-3.286413 1.875,-4.46875 -0.18905,-1.143615 -0.89012,-1.829546 -0.9375,-1.875 l -0.0312,-0.03125 -10.34375,-10.46875 c -0.0109,-0.01209 -0.0202,-0.01938 -0.0312,-0.03125 -1.00365,-1.080522 -2.35754,-1.237666 -3.3125,-1.25 -0.48273,-0.0062 -0.90739,0.02483 -1.1875,0 -0.28011,-0.02483 -0.36182,-0.08217 -0.375,-0.09375 -0.0359,-0.03149 -0.26381,-0.458092 -0.375,-1.03125 -0.0939,-0.48415 -0.1272,-1.038972 -0.15625,-1.53125 4.30503,-6.904761 3.44101,-16.112242 -2.5625,-22.09375 -3.50133,-3.488502 -8.12747,-5.21875 -12.71875,-5.21875 z m 0.0625,7.625 c 5.6953,0 10.3125,4.583807 10.3125,10.25 0,5.666196 -4.61719,10.25 -10.3125,10.25 -5.6953,3e-6 -10.28125,-4.580436 -10.28125,-10.25 0,-2.833402 1.17188,-5.428696 3.03125,-7.28125 1.86054,-1.853726 4.39236,-2.96875 7.25,-2.96875 z" />
        <path
           style="display:inline;opacity:0.3;fill:#000000;fill-opacity:1;stroke:none"
           id="path3921"
           inkscape:connector-curvature="0"
           d="m 208.77628,31.511362 c -4.33773,0 -8.66153,1.6424 -11.96875,4.9375 -6.61443,6.590199 -6.61443,17.2848 0,23.875 5.76631,5.745185 14.64906,6.521844 21.21875,2.25 1.1167,0.05582 2.92261,0.214234 3.5625,0.9375 0.87128,0.984794 -0.35845,3.280341 1.3125,4.78125 l 10.375,10.53125 c 0,0 1.93492,2.054077 4.9375,-0.9375 3.00258,-2.991577 0.9375,-4.90625 0.9375,-4.90625 l -10.40625,-10.53125 c -1.50643,-1.664832 -3.82409,-0.44442 -4.8125,-1.3125 -0.72593,-0.637547 -0.85024,-2.418635 -0.90625,-3.53125 4.28755,-6.545616 3.51631,-15.411072 -2.25,-21.15625 -3.30722,-3.2951 -7.66227,-4.9375 -12,-4.9375 z m 0.0625,5.625 c 6.23615,0 11.3125,5.036699 11.3125,11.25 0,6.213304 -5.07635,11.25 -11.3125,11.25 -6.23614,3e-6 -11.28125,-5.036696 -11.28125,-11.25 0,-3.106651 1.26767,-5.962669 3.3125,-8 2.04483,-2.037333 4.85068,-3.25 7.96875,-3.25 z" />
        <path
           style="display:inline;fill:url(#linearGradient4575);fill-opacity:1;stroke:none"
           id="Symbol"
           inkscape:connector-curvature="0"
           d="m 208.77628,30.511362 c -4.33773,0 -8.66153,1.6424 -11.96875,4.9375 -6.61443,6.590199 -6.61443,17.2848 0,23.875 5.76631,5.745185 14.64906,6.521844 21.21875,2.25 1.1167,0.05582 2.92261,0.214234 3.5625,0.9375 0.87128,0.984794 -0.35845,3.280341 1.3125,4.78125 l 10.375,10.53125 c 0,0 1.93492,2.054077 4.9375,-0.9375 3.00258,-2.991577 0.9375,-4.90625 0.9375,-4.90625 l -10.40625,-10.53125 c -1.50643,-1.664832 -3.82409,-0.44442 -4.8125,-1.3125 -0.72593,-0.637547 -0.85024,-2.418635 -0.90625,-3.53125 4.28755,-6.545616 3.51631,-15.411072 -2.25,-21.15625 -3.30722,-3.2951 -7.66227,-4.9375 -12,-4.9375 z m 0.0625,5.625 c 6.23615,0 11.3125,5.036699 11.3125,11.25 0,6.213304 -5.07635,11.25 -11.3125,11.25 -6.23614,3e-6 -11.28125,-5.036696 -11.28125,-11.25 0,-3.106651 1.26767,-5.962669 3.3125,-8 2.04483,-2.037333 4.85068,-3.25 7.96875,-3.25 z" />
        <path
           style="display:inline;opacity:0.75;fill:#ffffff;fill-opacity:1;stroke:none"
           id="path3903"
           inkscape:connector-curvature="0"
           d="m 208.77628,30.511362 c -4.33773,0 -8.66153,1.6424 -11.96875,4.9375 -3.43445,3.421869 -5.06963,7.951631 -4.9375,12.4375 0.12234,-4.153494 1.75752,-8.26917 4.9375,-11.4375 3.30722,-3.2951 7.63102,-4.9375 11.96875,-4.9375 4.33773,0 8.69278,1.6424 12,4.9375 3.15563,3.144062 4.81546,7.222337 4.96875,11.34375 0.0986,-4.45697 -1.5571,-8.944602 -4.96875,-12.34375 -3.30722,-3.2951 -7.66227,-4.9375 -12,-4.9375 z m -11.1875,17.375 c -0.007,0.166448 -0.0312,0.331996 -0.0312,0.5 0,6.213304 5.04511,11.250003 11.28125,11.25 6.23615,0 11.3125,-5.036696 11.3125,-11.25 0,-0.168003 -0.0239,-0.333793 -0.0312,-0.5 -0.26431,5.980646 -5.21372,10.75 -11.28125,10.75 -6.06752,3e-6 -10.98729,-4.769354 -11.25,-10.75 z m 25.5,9.65625 c -0.0156,0.02413 -0.0467,0.03843 -0.0625,0.0625 0.056,1.112615 0.18032,2.893703 0.90625,3.53125 0.98841,0.86808 3.30607,-0.352332 4.8125,1.3125 l 10.40625,10.53125 c 0,0 0.50805,0.479482 0.65625,1.3125 0.2831,-1.458991 -0.65625,-2.3125 -0.65625,-2.3125 l -10.40625,-10.53125 c -1.50643,-1.664832 -3.82409,-0.44442 -4.8125,-1.3125 -0.54445,-0.47816 -0.75113,-1.59355 -0.84375,-2.59375 z" />
        <path
           style="display:inline;opacity:0.15;fill:#000000;fill-opacity:1;stroke:none"
           id="path3912"
           inkscape:connector-curvature="0"
           d="m 208.83878,35.136362 c -3.11807,0 -5.92392,1.212667 -7.96875,3.25 -2.04483,2.037331 -3.3125,4.893349 -3.3125,8 0,0.168004 0.0239,0.333793 0.0312,0.5 0.12834,-2.911434 1.34701,-5.572845 3.28125,-7.5 2.04483,-2.037333 4.85068,-3.25 7.96875,-3.25 6.06753,0 11.01694,4.769357 11.28125,10.75 0.007,-0.166207 0.0312,-0.331996 0.0312,-0.5 0,-6.213301 -5.07635,-11.25 -11.3125,-11.25 z m 16.90625,11.65625 c -0.0681,3.07612 -0.96794,6.139613 -2.71875,8.8125 0.0135,0.268923 0.0334,0.584808 0.0625,0.90625 1.89862,-2.941899 2.78171,-6.345401 2.65625,-9.71875 z m -33.875,0.09375 c -0.13213,4.485869 1.50305,9.01563 4.9375,12.4375 5.76631,5.745185 14.64906,6.521844 21.21875,2.25 1.1167,0.05582 2.92261,0.214234 3.5625,0.9375 0.21782,0.246198 0.31041,0.560354 0.34375,0.9375 0.003,-0.782159 0.0483,-1.494343 -0.34375,-1.9375 -0.63989,-0.723266 -2.4458,-0.88168 -3.5625,-0.9375 -6.56969,4.271844 -15.45244,3.495185 -21.21875,-2.25 -3.17998,-3.16833 -4.81516,-7.284006 -4.9375,-11.4375 z m 30.0625,16.8125 c 0.0426,1.107232 -0.20092,2.543114 0.96875,3.59375 l 10.375,10.53125 c 0,0 1.93492,2.054077 4.9375,-0.9375 1.50129,-1.495789 1.7347,-2.709885 1.59375,-3.5625 -0.14707,0.719058 -0.61097,1.583321 -1.59375,2.5625 -3.00258,2.991577 -4.9375,0.9375 -4.9375,0.9375 l -10.375,-10.53125 c -0.83548,-0.750455 -0.9584,-1.70915 -0.96875,-2.59375 z" />
      </g>
    </g>
    <text
       xml:space="preserve"
       style="font-style:normal;font-variant:normal;font-weight:bold;font-stretch:normal;font-size:14.10584354px;line-height:125%;font-family:'Berlin Sans FB Demi';-inkscape-font-specification:'Berlin Sans FB Demi Bold';letter-spacing:0px;word-spacing:0px;fill:#f8981d;fill-opacity:1;stroke:none;stroke-width:1px;stroke-linecap:butt;stroke-linejoin:miter;stroke-opacity:1"
       x="33.79034"
       y="75.842682"
       id="text4524"
       sodipodi:linespacing="125%"><tspan
         sodipodi:role="line"
         id="tspan4526"
         x="33.79034"
         y="75.842682"
         style="font-style:normal;font-variant:normal;font-weight:normal;font-stretch:normal;font-family:'Arial Rounded MT Bold';-inkscape-font-specification:'Arial Rounded MT Bold, ';fill:#f8981d;fill-opacity:1">JAVA</tspan></text>
    <text
       xml:space="preserve"
       style="font-style:normal;font-variant:normal;font-weight:bold;font-stretch:normal;font-size:2.69194293px;line-height:125%;font-family:'Berlin Sans FB Demi';-inkscape-font-specification:'Berlin Sans FB Demi Bold';letter-spacing:0px;word-spacing:0px;fill:#f8981d;fill-opacity:1;stroke:none;stroke-width:1px;stroke-linecap:butt;stroke-linejoin:miter;stroke-opacity:1"
       x="67.74324"
       y="67.41848"
       id="text4524-3"
       sodipodi:linespacing="125%"><tspan
         sodipodi:role="line"
         id="tspan4526-2"
         x="67.74324"
         y="67.41848"
         style="font-style:normal;font-variant:normal;font-weight:normal;font-stretch:normal;font-family:'Arial Rounded MT Bold';-inkscape-font-specification:'Arial Rounded MT Bold, ';fill:#f8981d;fill-opacity:1">TM</tspan></text>
  </g>
</svg>
